HIERARCHY
ROOT joint_Root
{
	OFFSET 0.0 0.0 0.0
	CHANNELS 6 Xposition Yposition Zposition Zrotation Xrotation Yrotation 
	JOINT Hips
	{
		OFFSET -0.726466 93.3139 -2.00062
		CHANNELS 6 Xposition Yposition Zposition Zrotation Xrotation Yrotation 
		JOINT Spine
		{
			OFFSET 15.7357 0.0 0.0
			CHANNELS 6 Xposition Yposition Zposition Zrotation Xrotation Yrotation 
			JOINT Chest
			{
				OFFSET 8.98455 -0.406207 0.0
				CHANNELS 6 Xposition Yposition Zposition Zrotation Xrotation Yrotation 
				JOINT Neck
				{
					OFFSET 16.3773 0.0 0.0
					CHANNELS 6 Xposition Yposition Zposition Zrotation Xrotation Yrotation 
					JOINT Head
					{
						OFFSET 6.45672 0.0 0.0
						CHANNELS 6 Xposition Yposition Zposition Zrotation Xrotation Yrotation 
						End Site
						{
							OFFSET 0.0 0.0 0.0
						}
					}
				}
				JOINT Shoulder_L
				{
					OFFSET 12.9942 -0.242716 4.98039
					CHANNELS 6 Xposition Yposition Zposition Zrotation Xrotation Yrotation 
					JOINT UpperArm_L
					{
						OFFSET 5.34809 0.0 0.0
						CHANNELS 6 Xposition Yposition Zposition Zrotation Xrotation Yrotation 
						JOINT LowerArm_L
						{
							OFFSET 24.3286 1.87007e-05 0.0
							CHANNELS 6 Xposition Yposition Zposition Zrotation Xrotation Yrotation 
							JOINT Hand_L
							{
								OFFSET 22.2916 0.0 0.0
								CHANNELS 6 Xposition Yposition Zposition Zrotation Xrotation Yrotation 
								End Site
								{
									OFFSET 0.0 0.0 0.0
								}
							}
						}
					}
				}
				JOINT Shoulder_R
				{
					OFFSET 12.9945 -0.242716 -4.98039
					CHANNELS 6 Xposition Yposition Zposition Zrotation Xrotation Yrotation 
					JOINT UpperArm_R
					{
						OFFSET -5.34813 0.0 0.0
						CHANNELS 6 Xposition Yposition Zposition Zrotation Xrotation Yrotation 
						JOINT LowerArm_R
						{
							OFFSET -24.3289 0.000322201 0.0
							CHANNELS 6 Xposition Yposition Zposition Zrotation Xrotation Yrotation 
							JOINT Hand_R
							{
								OFFSET -22.2915 -0.000108084 0.0
								CHANNELS 6 Xposition Yposition Zposition Zrotation Xrotation Yrotation 
								End Site
								{
									OFFSET 0.0 0.0 0.0
								}
							}
						}
					}
				}
			}
		}
		JOINT UpperLeg_L
		{
			OFFSET -2.19248 -6.46944 0.0
			CHANNELS 6 Xposition Yposition Zposition Zrotation Xrotation Yrotation 
			JOINT LowerLeg_L
			{
				OFFSET 39.0811 0.0 -1.23785e-05
				CHANNELS 6 Xposition Yposition Zposition Zrotation Xrotation Yrotation 
				JOINT Foot_L
				{
					OFFSET 40.9854 0.0 -1.26872e-05
					CHANNELS 6 Xposition Yposition Zposition Zrotation Xrotation Yrotation 
					JOINT Toes_L
					{
						OFFSET 11.7543 0.0 0.0
						CHANNELS 6 Xposition Yposition Zposition Zrotation Xrotation Yrotation 
						End Site
						{
							OFFSET 0.0 0.0 0.0
						}
					}
				}
			}
		}
		JOINT UpperLeg_R
		{
			OFFSET -2.19251 6.46944 0.0
			CHANNELS 6 Xposition Yposition Zposition Zrotation Xrotation Yrotation 
			JOINT LowerLeg_R
			{
				OFFSET -39.0811 -0.00228153 -0.0401928
				CHANNELS 6 Xposition Yposition Zposition Zrotation Xrotation Yrotation 
				JOINT Foot_R
				{
					OFFSET -40.9854 0.0 0.0
					CHANNELS 6 Xposition Yposition Zposition Zrotation Xrotation Yrotation 
					JOINT Toes_R
					{
						OFFSET -11.7543 0.0 0.0
						CHANNELS 6 Xposition Yposition Zposition Zrotation Xrotation Yrotation 
						End Site
						{
							OFFSET 0.0 0.0 0.0
						}
					}
				}
			}
		}
	}
}
MOTION
Frames:	7
Frame Time:	0.0333333
0.000000 0.000000 0.000000 0.000000 0.000000 -0.000000 -0.927952 92.319300 -0.077228 87.351300 -1.952560 4.300710 15.735700 0.000005 -0.000001 95.647700 85.538800 -97.057000 8.984550 -0.406207 -0.000000 1.126670 0.959307 -2.825780 16.377300 -0.000001 -0.000001 2.654470 -2.006710 2.185780 6.456720 -0.000001 -0.000000 3.162680 -1.731360 -8.786270 12.994200 -0.242716 4.980390 -89.796000 -0.628034 -71.999600 5.348090 -0.000007 -0.000001 -68.596800 35.184400 -12.707900 24.328600 0.000019 0.000005 2.143750 6.113720 -19.365600 22.291600 -0.000001 0.000005 6.857860 5.443120 -4.395400 12.994500 -0.242716 -4.980390 92.039800 -4.902400 -67.375000 -5.348130 -0.000001 -0.000004 -46.928700 -50.264400 -100.460000 -24.328900 0.000322 -0.000009 9.659160 8.220400 -49.956000 -22.291500 -0.000108 -0.000004 39.574900 5.661930 -15.837200 -2.192480 -6.469440 -0.000000 -174.235000 -9.359400 -1.895210 39.081100 -0.000007 -0.000012 -0.117559 0.277410 22.966000 40.985400 -0.000006 -0.000013 -0.439863 3.584390 -66.725700 11.754300 -0.000000 0.000003 -0.000053 -0.000593 -16.600600 -2.192510 6.469440 -0.000001 -179.429000 15.717700 -178.976000 -39.081100 -0.002282 -0.040193 0.019489 -0.047842 18.669200 -40.985400 0.000008 0.000006 5.831310 8.790770 -66.259400 -11.754300 -0.000006 -0.000006 -0.007781 -0.086236 -20.084500
0.000000 0.000000 0.000000 0.000000 0.000000 -0.000000 -0.962594 92.317100 -0.040841 87.377300 -1.477070 4.321120 15.735700 0.000005 -0.000001 96.851000 85.531400 -98.463900 8.984550 -0.406207 -0.000000 1.126040 1.159050 -3.234590 16.377300 -0.000001 -0.000001 2.703390 -1.832760 1.861630 6.456720 -0.000001 -0.000000 3.094890 -1.647670 -8.675650 12.994200 -0.242716 4.980390 -89.843200 -0.477511 -71.820900 5.348090 -0.000007 -0.000001 -67.761500 35.209500 -13.457500 24.328600 0.000019 0.000005 2.061250 5.526180 -20.492500 22.291600 -0.000001 0.000005 6.803340 5.448400 -4.582600 12.994500 -0.242716 -4.980390 92.076100 -5.035960 -67.560800 -5.348130 -0.000001 -0.000004 -51.573200 -50.015100 -101.741000 -24.328900 0.000322 -0.000009 6.211690 6.897400 -42.174200 -22.291500 -0.000108 -0.000004 34.048800 5.565080 -9.237230 -2.192480 -6.469440 -0.000000 -174.248000 -9.044850 -1.932990 39.081100 -0.000007 -0.000012 -0.118013 0.278469 22.966900 40.985400 -0.000006 -0.000013 -0.432889 3.751950 -66.707300 11.754300 -0.000000 0.000003 -0.000048 -0.000545 -16.598700 -2.192510 6.469440 -0.000001 -179.463000 16.069300 -178.883000 -39.081100 -0.002282 -0.040193 0.020286 -0.050299 18.636000 -40.985400 0.000008 0.000006 5.851780 8.676970 -66.305600 -11.754300 -0.000006 -0.000006 -0.007846 -0.086772 -20.106400
0.000000 0.000000 0.000000 0.000000 0.000000 -0.000000 -0.995497 92.320900 -0.016636 87.387600 -1.020510 4.259170 15.735700 0.000005 -0.000001 97.437000 85.574000 -99.212800 8.984550 -0.406207 -0.000000 1.033570 1.249560 -3.560190 16.377300 -0.000001 -0.000001 2.782260 -1.567240 1.529570 6.456720 -0.000001 -0.000000 3.028790 -1.424500 -8.980560 12.994200 -0.242716 4.980390 -89.879500 -0.363516 -71.654300 5.348090 -0.000007 -0.000001 -67.276100 35.002500 -13.738400 24.328600 0.000019 0.000005 2.037920 5.113040 -21.765900 22.291600 -0.000001 0.000005 6.852300 5.453430 -4.762600 12.994500 -0.242716 -4.980390 92.194700 -5.364610 -67.711200 -5.348130 -0.000001 -0.000004 -57.110900 -49.582700 -103.628000 -24.328900 0.000322 -0.000009 3.735590 5.355680 -34.965100 -22.291500 -0.000108 -0.000004 29.620000 5.399550 -2.874000 -2.192480 -6.469440 -0.000000 -174.263000 -8.749290 -2.041010 39.081100 -0.000007 -0.000012 -0.118228 0.279317 22.941800 40.985400 -0.000006 -0.000013 -0.416719 3.932780 -66.675200 11.754300 -0.000000 0.000003 -0.000061 -0.000670 -16.603500 -2.192510 6.469440 -0.000001 -179.427000 16.300800 -178.866000 -39.081100 -0.002282 -0.040193 0.022675 -0.057634 18.559500 -40.985400 0.000008 0.000006 5.929770 8.413270 -66.325300 -11.754300 -0.000006 -0.000006 -0.007545 -0.084276 -20.004500
0.000000 0.000000 0.000000 0.000000 0.000000 -0.000000 -0.993470 92.317200 0.016525 87.391800 -0.626024 4.243420 15.735700 0.000005 -0.000001 97.520300 85.586700 -99.408400 8.984550 -0.406207 -0.000000 1.008520 1.266000 -3.784530 16.377300 -0.000001 -0.000001 2.781140 -1.390170 1.294050 6.456720 -0.000001 -0.000000 3.022440 -1.211540 -9.530360 12.994200 -0.242716 4.980390 -89.921200 -0.236978 -71.598200 5.348090 -0.000007 -0.000001 -66.913900 34.952700 -13.823800 24.328600 0.000019 0.000005 1.907040 4.535960 -22.831900 22.291600 -0.000001 0.000005 6.906790 5.456930 -4.889200 12.994500 -0.242716 -4.980390 92.314200 -5.658620 -67.713400 -5.348130 -0.000001 -0.000004 -63.814300 -48.611800 -106.662000 -24.328900 0.000322 -0.000009 2.588430 4.603140 -29.402400 -22.291500 -0.000108 -0.000004 27.229000 5.177980 3.295870 -2.192480 -6.469440 -0.000000 -174.274000 -8.561470 -2.127980 39.081100 -0.000007 -0.000012 -0.118977 0.280549 22.981300 40.985400 -0.000006 -0.000013 -0.377073 4.115430 -66.676600 11.754300 -0.000000 0.000003 -0.000055 -0.000613 -16.601300 -2.192510 6.469440 -0.000001 -179.408000 16.464100 -178.848000 -39.081100 -0.002282 -0.040193 0.025665 -0.066522 18.564300 -40.985400 0.000008 0.000006 5.997430 8.162970 -66.365500 -11.754300 -0.000006 -0.000006 -0.007823 -0.086581 -20.098500
0.000000 0.000000 0.000000 0.000000 0.000000 -0.000000 -0.975510 92.324500 0.035345 87.414400 -0.451067 4.270760 15.735700 0.000005 -0.000001 97.324100 85.589700 -99.279100 8.984550 -0.406207 -0.000000 1.007120 1.239260 -3.917790 16.377300 -0.000001 -0.000001 2.753260 -1.242710 1.092070 6.456720 -0.000001 -0.000000 3.005820 -1.009570 -9.905480 12.994200 -0.242716 4.980390 -89.947900 -0.156809 -71.608400 5.348090 -0.000007 -0.000001 -66.726300 35.083800 -13.751000 24.328600 0.000019 0.000005 1.852530 4.309640 -23.287200 22.291600 -0.000001 0.000005 6.842920 5.462360 -5.087200 12.994500 -0.242716 -4.980390 92.381900 -5.808910 -67.657700 -5.348130 -0.000001 -0.000004 -70.964400 -46.930000 -109.942000 -24.328900 0.000322 -0.000009 2.645160 4.992210 -27.974000 -22.291500 -0.000108 -0.000004 25.782000 4.839230 10.553500 -2.192480 -6.469440 -0.000000 -174.309000 -8.465280 -2.074700 39.081100 -0.000007 -0.000012 -0.117359 0.277696 22.909800 40.985400 -0.000006 -0.000013 -0.349301 4.196710 -66.648100 11.754300 -0.000000 0.000003 -0.000056 -0.000624 -16.601700 -2.192510 6.469440 -0.000001 -179.448000 16.483000 -178.818000 -39.081100 -0.002282 -0.040193 0.026006 -0.067423 18.593500 -40.985400 0.000008 0.000006 5.994290 8.052140 -66.327100 -11.754300 -0.000006 -0.000006 -0.007811 -0.086479 -20.094400
0.000000 0.000000 0.000000 0.000000 0.000000 -0.000000 -0.933514 92.314600 0.047375 87.425600 -0.547616 4.228940 15.735700 0.000005 -0.000001 96.799200 85.604200 -98.723800 8.984550 -0.406207 -0.000000 0.986288 1.154230 -3.856030 16.377300 -0.000001 -0.000001 2.736390 -1.142480 0.865797 6.456720 -0.000001 -0.000000 2.887800 -0.845183 -10.151900 12.994200 -0.242716 4.980390 -89.964200 -0.107984 -71.656800 5.348090 -0.000007 -0.000001 -66.806100 35.310800 -13.514600 24.328600 0.000019 0.000005 1.887130 4.411700 -23.186600 22.291600 -0.000001 0.000005 6.645800 5.461430 -5.053290 12.994500 -0.242716 -4.980390 92.375600 -5.749220 -67.503800 -5.348130 -0.000001 -0.000004 -74.295400 -45.499800 -111.226000 -24.328900 0.000322 -0.000009 2.421230 4.295790 -29.459400 -22.291500 -0.000108 -0.000004 27.565700 4.617700 14.606400 -2.192480 -6.469440 -0.000000 -174.353000 -8.556020 -2.120980 39.081100 -0.000007 -0.000012 -0.117476 0.277182 22.968400 40.985400 -0.000006 -0.000013 -0.320266 4.162660 -66.697700 11.754300 -0.000000 0.000003 -0.000055 -0.000618 -16.601500 -2.192510 6.469440 -0.000001 -179.479000 16.419300 -178.861000 -39.081100 -0.002282 -0.040193 0.026754 -0.069502 18.629800 -40.985400 0.000008 0.000006 6.028610 8.087410 -66.410400 -11.754300 -0.000006 -0.000006 -0.008070 -0.088602 -20.181100
0.000000 0.000000 0.000000 0.000000 0.000000 -0.000000 -0.843471 92.312300 0.076671 87.398600 -1.034800 4.249770 15.735700 0.000005 -0.000001 96.229500 85.595700 -98.009500 8.984550 -0.406207 -0.000000 1.009740 1.060340 -3.566710 16.377300 -0.000001 -0.000001 2.687990 -1.138900 0.834871 6.456720 -0.000001 -0.000000 2.883520 -0.682892 -10.496600 12.994200 -0.242716 4.980390 -89.945800 -0.164421 -71.744200 5.348090 -0.000007 -0.000001 -67.382300 35.451500 -12.993100 24.328600 0.000019 0.000005 1.944510 4.708200 -22.471900 22.291600 -0.000001 0.000005 6.642310 5.460100 -5.004260 12.994500 -0.242716 -4.980390 92.336400 -5.639570 -67.452600 -5.348130 -0.000001 -0.000004 -72.072700 -45.390300 -109.805000 -24.328900 0.000322 -0.000009 2.090470 3.306750 -32.338300 -22.291500 -0.000108 -0.000004 30.150300 4.693890 13.277800 -2.192480 -6.469440 -0.000000 -174.355000 -8.903770 -1.988160 39.081100 -0.000007 -0.000012 -0.117311 0.276853 22.963900 40.985400 -0.000006 -0.000013 -0.292321 4.011530 -66.768900 11.754300 -0.000000 0.000003 -0.000052 -0.000587 -16.600300 -2.192510 6.469440 -0.000001 -179.511000 16.117700 -178.850000 -39.081100 -0.002282 -0.040193 0.026295 -0.068133 18.631800 -40.985400 0.000008 0.000006 5.950330 8.245730 -66.395200 -11.754300 -0.000006 -0.000006 -0.008170 -0.089411 -20.214100
